<svg xmlns="http://www.w3.org/2000/svg" xmlns:xlink="http://www.w3.org/1999/xlink" width="40" zoomAndPan="magnify" viewBox="0 0 30 30.000001" height="40" preserveAspectRatio="xMidYMid meet" version="1.0"><defs><filter x="0%" y="0%" width="100%" height="100%" id="a9da978c56"><feColorMatrix values="0 0 0 0 1 0 0 0 0 1 0 0 0 0 1 0 0 0 1 0" color-interpolation-filters="sRGB"/></filter><mask id="cd13e1fd77"><g filter="url(#a9da978c56)"><rect x="-3" width="36" fill="#000000" y="-3" height="36.000001" fill-opacity="0.4"/></g></mask><clipPath id="d90c3d9dcf"><rect x="0" width="24" y="0" height="23"/></clipPath></defs><g mask="url(#cd13e1fd77)"><g transform="matrix(1, 0, 0, 1, 3, 3)"><g clip-path="url(#d90c3d9dcf)"><path fill="#393939" d="M 11.996094 21.847656 C 11.199219 21.847656 10.40625 21.546875 9.796875 20.945312 L 9.042969 20.1875 C 8.75 19.898438 8.359375 19.738281 7.945312 19.734375 L 6.882812 19.734375 C 5.164062 19.734375 3.769531 18.339844 3.769531 16.621094 L 3.769531 15.558594 C 3.769531 15.144531 3.605469 14.753906 3.3125 14.457031 L 2.570312 13.71875 C 1.355469 12.507812 1.351562 10.53125 2.558594 9.316406 L 3.316406 8.558594 C 3.605469 8.265625 3.769531 7.875 3.769531 7.460938 L 3.769531 6.398438 C 3.769531 4.683594 5.164062 3.285156 6.882812 3.285156 L 7.945312 3.285156 C 8.359375 3.285156 8.75 3.125 9.042969 2.828125 L 9.789062 2.085938 C 10.996094 0.871094 12.972656 0.867188 14.191406 2.078125 L 14.945312 2.832031 C 15.238281 3.125 15.628906 3.285156 16.042969 3.285156 L 17.105469 3.285156 C 18.824219 3.285156 20.21875 4.683594 20.21875 6.398438 L 20.21875 7.460938 C 20.21875 7.875 20.382812 8.265625 20.675781 8.5625 L 21.417969 9.304688 C 22.003906 9.890625 22.332031 10.667969 22.332031 11.5 C 22.335938 12.328125 22.015625 13.105469 21.4375 13.695312 C 21.425781 13.707031 21.417969 13.71875 21.40625 13.726562 L 20.671875 14.460938 C 20.382812 14.753906 20.21875 15.144531 20.21875 15.5625 L 20.21875 16.621094 C 20.21875 18.339844 18.824219 19.734375 17.105469 19.734375 L 16.042969 19.734375 C 15.628906 19.738281 15.238281 19.898438 14.941406 20.191406 L 14.199219 20.933594 C 13.59375 21.542969 12.792969 21.847656 11.996094 21.847656 " fill-opacity="1" fill-rule="nonzero"/></g></g></g><path fill="#7b3f00" d="M 12.972656 12.496094 C 12.800781 12.667969 12.582031 12.757812 12.335938 12.757812 C 12.105469 12.757812 11.878906 12.664062 11.699219 12.496094 C 11.527344 12.324219 11.429688 12.089844 11.429688 11.855469 C 11.429688 11.628906 11.527344 11.398438 11.691406 11.21875 C 11.785156 11.125 11.894531 11.054688 12.003906 11.019531 C 12.316406 10.875 12.730469 10.960938 12.976562 11.21875 C 13.066406 11.304688 13.132812 11.402344 13.175781 11.5 C 13.226562 11.609375 13.25 11.730469 13.25 11.855469 C 13.25 12.101562 13.152344 12.328125 12.972656 12.496094 Z M 18.292969 11.214844 C 17.941406 10.863281 17.367188 10.863281 17.015625 11.214844 L 11.699219 16.527344 C 11.347656 16.878906 11.347656 17.453125 11.699219 17.808594 C 11.871094 17.976562 12.097656 18.070312 12.339844 18.070312 C 12.582031 18.070312 12.808594 17.976562 12.980469 17.808594 L 18.292969 12.492188 C 18.648438 12.140625 18.648438 11.566406 18.292969 11.214844 Z M 18 16.335938 C 17.664062 16.195312 17.269531 16.269531 17.003906 16.535156 C 16.949219 16.601562 16.871094 16.699219 16.816406 16.816406 C 16.761719 16.941406 16.753906 17.078125 16.753906 17.167969 C 16.753906 17.257812 16.761719 17.394531 16.816406 17.519531 C 16.871094 17.636719 16.933594 17.730469 17.011719 17.8125 C 17.199219 17.984375 17.417969 18.074219 17.660156 18.074219 C 17.890625 18.074219 18.113281 17.980469 18.300781 17.808594 C 18.464844 17.644531 18.554688 17.414062 18.554688 17.167969 C 18.554688 16.921875 18.464844 16.695312 18.296875 16.527344 C 18.207031 16.4375 18.097656 16.367188 18 16.335938 Z M 18 16.335938 " fill-opacity="1" fill-rule="evenodd"/></svg>