<svg xmlns="http://www.w3.org/2000/svg" xmlns:xlink="http://www.w3.org/1999/xlink" width="40" zoomAndPan="magnify" viewBox="0 0 30 30.000001" height="40" preserveAspectRatio="xMidYMid meet" version="1.0"><defs><clipPath id="8c8911ed86"><path d="M 3.855469 4.835938 L 14 4.835938 L 14 24.433594 L 3.855469 24.433594 Z M 3.855469 4.835938 " clip-rule="nonzero"/></clipPath><clipPath id="394a4b86a8"><path d="M 16 4.835938 L 26.355469 4.835938 L 26.355469 24.433594 L 16 24.433594 Z M 16 4.835938 " clip-rule="nonzero"/></clipPath></defs><g clip-path="url(#8c8911ed86)"><path fill="#7b3f00" d="M 3.867188 14.515625 L 8.707031 14.515625 C 8.707031 17.1875 6.539062 19.355469 3.867188 19.355469 L 3.867188 24.195312 C 9.214844 24.195312 13.546875 19.863281 13.546875 14.515625 L 13.546875 4.835938 L 3.867188 4.835938 L 3.867188 14.515625 " fill-opacity="1" fill-rule="nonzero"/></g><g clip-path="url(#394a4b86a8)"><path fill="#7b3f00" d="M 16.453125 4.835938 L 16.453125 14.515625 L 21.292969 14.515625 C 21.292969 17.1875 19.125 19.355469 16.453125 19.355469 L 16.453125 24.195312 C 21.796875 24.195312 26.132812 19.863281 26.132812 14.515625 L 26.132812 4.835938 L 16.453125 4.835938 " fill-opacity="1" fill-rule="nonzero"/></g></svg>