<svg xmlns="http://www.w3.org/2000/svg" xmlns:xlink="http://www.w3.org/1999/xlink" width="40" zoomAndPan="magnify" viewBox="0 0 30 30.000001" height="40" preserveAspectRatio="xMidYMid meet" version="1.0"><defs><clipPath id="26f043b030"><path d="M 3.386719 2.902344 L 26.613281 2.902344 L 26.613281 25.402344 L 3.386719 25.402344 Z M 3.386719 2.902344 " clip-rule="nonzero"/></clipPath></defs><g clip-path="url(#26f043b030)"><path fill="#7b3f00" d="M 6.304688 2.902344 L 6.015625 3.484375 L 9.074219 5.234375 C 9.074219 6.691406 8.492188 7.859375 7.179688 8.585938 L 4.121094 6.839844 L 3.972656 7.128906 C 4.703125 9.316406 6.160156 10.773438 9.074219 10.773438 C 9.804688 10.773438 11.988281 12.960938 13.15625 14.125 L 15.488281 11.792969 C 14.320312 10.628906 11.699219 8.003906 11.699219 7.277344 C 11.699219 4.652344 10.96875 2.902344 6.304688 2.902344 Z M 24.523438 3.632812 L 21.609375 5.671875 L 21.320312 6.839844 L 12.863281 15.292969 L 11.699219 14.5625 L 11.117188 15.148438 C 11.117188 16.894531 9.074219 17.769531 8.199219 17.769531 L 3.390625 22.582031 C 3.390625 24.039062 4.992188 25.640625 6.453125 25.640625 L 11.261719 20.832031 C 11.261719 19.957031 12.136719 17.917969 13.886719 17.917969 L 14.46875 17.332031 L 13.738281 16.167969 L 22.191406 7.714844 L 23.359375 7.421875 L 25.398438 4.507812 Z M 17.238281 13.542969 L 14.90625 15.875 C 16.65625 17.625 18.988281 19.957031 18.988281 20.6875 C 18.988281 23.308594 19.714844 25.058594 24.378906 25.058594 L 24.671875 24.476562 L 21.609375 22.726562 C 21.609375 21.269531 22.191406 20.101562 23.503906 19.375 L 26.566406 21.121094 L 26.710938 20.832031 C 25.984375 18.644531 24.523438 17.1875 21.609375 17.1875 C 20.882812 17.1875 18.988281 15.292969 17.238281 13.542969 Z M 17.238281 13.542969 " fill-opacity="1" fill-rule="nonzero"/></g></svg>