<svg xmlns="http://www.w3.org/2000/svg" xmlns:xlink="http://www.w3.org/1999/xlink" width="40" zoomAndPan="magnify" viewBox="0 0 30 30.000001" height="40" preserveAspectRatio="xMidYMid meet" version="1.0"><defs><clipPath id="26bdb7ca6b"><path d="M 4.296875 2.265625 L 25.34375 2.265625 L 25.34375 26.941406 L 4.296875 26.941406 Z M 4.296875 2.265625 " clip-rule="nonzero"/></clipPath></defs><g clip-path="url(#26bdb7ca6b)"><path fill="#7b3f00" d="M 24.746094 5.0625 C 23.171875 3.488281 14.992188 2.675781 14.992188 2.675781 C 14.992188 2.675781 6.8125 3.488281 5.238281 5.0625 C 5.238281 5.0625 4.316406 13.539062 5.847656 17.867188 C 8.183594 24.472656 14.992188 26.351562 14.992188 26.351562 C 14.992188 26.351562 21.800781 24.472656 24.136719 17.867188 C 25.667969 13.539062 24.746094 5.0625 24.746094 5.0625 " fill-opacity="1" fill-rule="nonzero"/><path fill="#231f20" d="M 24.746094 5.0625 L 25.035156 4.777344 C 24.90625 4.648438 24.761719 4.539062 24.59375 4.433594 C 24.285156 4.238281 23.910156 4.066406 23.488281 3.90625 C 22.746094 3.628906 21.851562 3.394531 20.925781 3.1875 C 19.535156 2.882812 18.0625 2.65625 16.9375 2.5 C 15.816406 2.347656 15.035156 2.269531 15.03125 2.269531 C 15.007812 2.269531 14.976562 2.269531 14.953125 2.269531 C 14.945312 2.269531 12.894531 2.476562 10.632812 2.878906 C 9.503906 3.082031 8.320312 3.332031 7.308594 3.636719 C 6.800781 3.789062 6.335938 3.953125 5.9375 4.140625 C 5.738281 4.230469 5.554688 4.328125 5.390625 4.433594 C 5.222656 4.539062 5.074219 4.648438 4.949219 4.777344 C 4.882812 4.839844 4.84375 4.929688 4.832031 5.019531 C 4.832031 5.03125 4.554688 7.570312 4.554688 10.59375 C 4.554688 11.851562 4.601562 13.191406 4.738281 14.472656 C 4.875 15.753906 5.097656 16.976562 5.460938 18.003906 C 6.066406 19.707031 6.957031 21.109375 7.953125 22.246094 C 9.449219 23.957031 11.175781 25.074219 12.527344 25.769531 C 13.882812 26.464844 14.863281 26.738281 14.882812 26.746094 C 14.953125 26.765625 15.03125 26.765625 15.101562 26.746094 C 15.128906 26.738281 16.863281 26.253906 18.910156 24.929688 C 19.933594 24.261719 21.03125 23.386719 22.027344 22.246094 C 23.027344 21.109375 23.917969 19.707031 24.523438 18.003906 C 24.886719 16.976562 25.109375 15.753906 25.246094 14.472656 C 25.382812 13.191406 25.429688 11.851562 25.429688 10.59375 C 25.429688 7.570312 25.152344 5.03125 25.152344 5.019531 C 25.140625 4.929688 25.101562 4.839844 25.035156 4.777344 L 24.746094 5.0625 L 24.339844 5.109375 L 24.339844 5.113281 C 24.355469 5.257812 24.613281 7.710938 24.613281 10.59375 C 24.613281 11.828125 24.566406 13.144531 24.433594 14.386719 C 24.300781 15.625 24.082031 16.796875 23.753906 17.730469 C 23.1875 19.328125 22.351562 20.636719 21.414062 21.710938 C 20.007812 23.316406 18.371094 24.382812 17.082031 25.046875 C 16.4375 25.375 15.882812 25.605469 15.492188 25.75 C 15.296875 25.824219 15.140625 25.878906 15.039062 25.910156 C 14.984375 25.925781 14.945312 25.941406 14.917969 25.949219 C 14.90625 25.953125 14.898438 25.953125 14.890625 25.957031 L 14.882812 25.957031 L 14.953125 26.210938 L 14.882812 25.957031 L 14.953125 26.210938 L 14.882812 25.957031 L 14.992188 26.351562 L 15.101562 25.957031 C 15.074219 25.949219 13.40625 25.480469 11.472656 24.214844 C 10.507812 23.582031 9.476562 22.75 8.546875 21.683594 C 7.617188 20.617188 6.792969 19.316406 6.230469 17.730469 C 5.902344 16.796875 5.683594 15.625 5.550781 14.386719 C 5.417969 13.144531 5.371094 11.828125 5.371094 10.59375 C 5.371094 9.105469 5.4375 7.730469 5.507812 6.730469 C 5.542969 6.230469 5.574219 5.824219 5.601562 5.542969 C 5.613281 5.402344 5.625 5.292969 5.632812 5.21875 C 5.636719 5.183594 5.640625 5.15625 5.640625 5.136719 C 5.640625 5.125 5.640625 5.121094 5.644531 5.113281 L 5.644531 5.109375 L 5.238281 5.0625 L 5.527344 5.351562 C 5.597656 5.28125 5.699219 5.203125 5.824219 5.121094 C 6.0625 4.972656 6.394531 4.816406 6.785156 4.671875 C 7.464844 4.414062 8.328125 4.183594 9.234375 3.988281 C 10.59375 3.6875 12.042969 3.460938 13.15625 3.308594 C 13.710938 3.234375 14.179688 3.175781 14.511719 3.140625 C 14.675781 3.121094 14.808594 3.105469 14.898438 3.097656 C 14.941406 3.09375 14.976562 3.089844 15 3.085938 C 15.019531 3.082031 15.03125 3.082031 15.03125 3.082031 L 14.992188 2.675781 L 14.953125 3.082031 C 14.953125 3.082031 14.960938 3.082031 14.972656 3.085938 C 15.207031 3.109375 17.253906 3.324219 19.414062 3.71875 C 20.496094 3.917969 21.609375 4.160156 22.53125 4.445312 C 22.992188 4.585938 23.402344 4.738281 23.738281 4.894531 C 23.902344 4.972656 24.050781 5.050781 24.171875 5.128906 C 24.292969 5.207031 24.390625 5.285156 24.457031 5.351562 L 24.746094 5.0625 L 24.339844 5.109375 L 24.746094 5.0625 " fill-opacity="1" fill-rule="nonzero"/></g></svg>