<svg xmlns="http://www.w3.org/2000/svg" xmlns:xlink="http://www.w3.org/1999/xlink" width="40" zoomAndPan="magnify" viewBox="0 0 30 30.000001" height="40" preserveAspectRatio="xMidYMid meet" version="1.0"><defs><clipPath id="0606066044"><path d="M 4.242188 3 L 27 3 L 27 25 L 4.242188 25 Z M 4.242188 3 " clip-rule="nonzero"/></clipPath></defs><g clip-path="url(#0606066044)"><path fill="#7b3f00" d="M 22.058594 16.6875 C 21.769531 16.96875 21.636719 17.375 21.703125 17.773438 L 22.699219 23.277344 C 22.78125 23.742188 22.585938 24.214844 22.195312 24.484375 C 21.8125 24.765625 21.300781 24.796875 20.886719 24.574219 L 15.929688 21.988281 C 15.757812 21.898438 15.566406 21.847656 15.371094 21.84375 L 15.066406 21.84375 C 14.960938 21.859375 14.859375 21.890625 14.765625 21.945312 L 9.808594 24.539062 C 9.566406 24.664062 9.289062 24.707031 9.015625 24.664062 C 8.351562 24.539062 7.910156 23.90625 8.019531 23.242188 L 9.015625 17.738281 C 9.082031 17.335938 8.949219 16.925781 8.660156 16.640625 L 4.617188 12.726562 C 4.28125 12.398438 4.164062 11.90625 4.316406 11.460938 C 4.46875 11.019531 4.851562 10.695312 5.3125 10.621094 L 10.871094 9.816406 C 11.296875 9.773438 11.667969 9.515625 11.855469 9.136719 L 14.308594 4.113281 C 14.367188 4 14.441406 3.898438 14.53125 3.808594 L 14.632812 3.730469 C 14.683594 3.671875 14.746094 3.625 14.8125 3.585938 L 14.933594 3.542969 L 15.125 3.460938 L 15.59375 3.460938 C 16.015625 3.507812 16.386719 3.757812 16.578125 4.132812 L 19.0625 9.136719 C 19.242188 9.5 19.589844 9.753906 19.992188 9.816406 L 25.550781 10.621094 C 26.019531 10.691406 26.414062 11.015625 26.570312 11.460938 C 26.714844 11.910156 26.589844 12.402344 26.246094 12.726562 Z M 22.058594 16.6875 " fill-opacity="1" fill-rule="nonzero"/></g></svg>